{"title":"300 Rise of an Empire 2014 720p WEB DL BLURRED SUBS x264-HOUND","uid":9882736,"size":2506758150,"categoryP":"video","categoryS":"hd___movies","magnet":"?xt=urn:btih:72248e6404014a07f92551d0da419685fc87fa1b&amp;dn=300+Rise+of+an+Empire+2014+720p+WEB+DL+BLURRED+SUBS+x264-HOUND&amp;tr=udp%3A%2F%2Ftracker.openbittorrent.com%3A80&amp;tr=udp%3A%2F%2Fopen.demonii.com%3A1337&amp;tr=udp%3A%2F%2Ftracker.coppersurfer.tk%3A6969&amp;tr=udp%3A%2F%2Fexodus.desync.com%3A6969","seeders":1,"leechers":0,"uploader":"098765432","files":-1,"time":1396567371,"description":"300 Rise of an Empire 2014 720p WEB DL BLURRED SUBS x264-HOUND\n\n\nMedia Info\nFormat                                   : Matroska\nFormat version                           : Version 4 / Version 2\nFile size                                : 2.33 GiB\nDuration                                 : 1h 42mn\nOverall bit rate                         : 3 261 Kbps\nEncoded date                             : UTC 2014-04-03 10:30:14\nWriting application                      : mkvmerge v6.5.0 ('Isn't she lovely'wink.gif\nWriting library                          : libebml v1.3.0 + libmatroska v1.4.1\n\nVideo\nID                                       : 1\nFormat                                   : AVC\nFormat/Info                              : Advanced Video Codec\nFormat profile                           : &lt;a class=&quot;__cf_email__&quot; href=&quot;/cdn-cgi/l/email-protection&quot; data-cfemail=&quot;0449656d6a4448372a35&quot;&gt;[email&amp;#160;protected]&lt;/a&gt;&lt;script cf-hash='f9e31' type=&quot;text/javascript&quot;&gt;\n/* &lt;![CDATA[ */!function(){try{var t=&quot;currentScript&quot;in document?document.currentScript:function(){for(var t=document.getElementsByTagName(&quot;script&quot;),e=t.length;e--;)if(t[e].getAttribute(&quot;cf-hash&quot;))return t[e]}();if(t&amp;&amp;t.previousSibling){var e,r,n,i,c=t.previousSibling,a=c.getAttribute(&quot;data-cfemail&quot;);if(a){for(e=&quot;&quot;,r=parseInt(a.substr(0,2),16),n=2;a.length-n;n+=2)i=parseInt(a.substr(n,2),16)^r,e+=String.fromCharCode(i);e=document.createTextNode(e),c.parentNode.replaceChild(e,c)}}}catch(u){}}();/* ]]&gt; */&lt;/script&gt;\nFormat settings, CABAC                   : No\nFormat settings, ReFrames                : 4 frames\nCodec ID                                 : V_MPEG4/ISO/AVC\nDuration                                 : 1h 42mn\nBit rate                                 : 2 940 Kbps\nWidth                                    : 1 280 pixels\nHeight                                   : 526 pixels\nDisplay aspect ratio                     : 2.40:1\nFrame rate mode                          : Constant\nFrame rate                               : 23.976 fps\nColor space                              : YUV\nChroma subsampling                       : 4:2:0\nBit depth                                : 8 bits\nScan type                                : Progressive\nBits/(Pixel*Frame)                       : 0.182\nStream size                              : 2.10 GiB (90%)\nWriting library                          : x264 core 138 r2358M+r755[x86] release 1\nLanguage                                 : English\nDefault                                  : Yes\nForced                                   : No\nMatrix coefficients                      : BT.709\n\nAudio\nID                                       : 2\nFormat                                   : AC-3\nFormat/Info                              : Audio Coding 3\nMode extension                           : CM (complete main)\nFormat settings, Endianness              : Big\nCodec ID                                 : A_AC3\nDuration                                 : 1h 42mn\nBit rate mode                            : Constant\nBit rate                                 : 256 Kbps\nChannel(s)                               : 2 channels\nChannel positions                        : Front: L R\nSampling rate                            : 48.0 KHz\nBit depth                                : 16 bits\nCompression mode                         : Lossy\nStream size                              : 188 MiB (8%)\nDefault                                  : Yes\nForced                                   : No\n\n\nScreens: &lt;a href=&quot;\nhttp://i.imgur.com/veobpmt.png&quot; rel=&quot;nofollow&quot; target=&quot;_NEW&quot;&gt;\nhttp://i.imgur.com/veobpmt.png&lt;/a&gt; &lt;a href=&quot;\nhttp://i.imgur.com/qSwWgMT.png&quot; rel=&quot;nofollow&quot; target=&quot;_NEW&quot;&gt;\nhttp://i.imgur.com/qSwWgMT.png&lt;/a&gt; &lt;a href=&quot;\nhttp://i.imgur.com/P9vB2eh.png&quot; rel=&quot;nofollow&quot; target=&quot;_NEW&quot;&gt;\nhttp://i.imgur.com/P9vB2eh.png&lt;/a&gt; &lt;a href=&quot;\nhttp://i.imgur.com/hqxOttB.png&quot; rel=&quot;nofollow&quot; target=&quot;_NEW&quot;&gt;\nhttp://i.imgur.com/hqxOttB.png&lt;/a&gt; &lt;a href=&quot;\nhttp://i.imgur.com/ClW1HCC.png&quot; rel=&quot;nofollow&quot; target=&quot;_NEW&quot;&gt;\nhttp://i.imgur.com/ClW1HCC.png&lt;/a&gt;","torrent":{"xt":"urn:btih:72248e6404014a07f92551d0da419685fc87fa1b","amp;dn":"300+Rise+of+an+Empire+2014+720p+WEB+DL+BLURRED+SUBS+x264-HOUND","amp;tr":["udp%3A%2F%2Ftracker.openbittorrent.com%3A80","udp%3A%2F%2Fopen.demonii.com%3A1337","udp%3A%2F%2Ftracker.coppersurfer.tk%3A6969","udp%3A%2F%2Fexodus.desync.com%3A6969"],"infoHash":"72248e6404014a07f92551d0da419685fc87fa1b","infoHashBuffer":{"type":"Buffer","data":[114,36,142,100,4,1,74,7,249,37,81,208,218,65,150,133,252,135,250,27]},"announce":[],"urlList":[]}}